<?xml version="1.0" standalone="no"?>
<!DOCTYPE svg PUBLIC "-//W3C//DTD SVG 20010904//EN"
 "http://www.w3.org/TR/2001/REC-SVG-20010904/DTD/svg10.dtd">
<svg version="1.0" xmlns="http://www.w3.org/2000/svg"
 width="700.000000pt" height="700.000000pt" viewBox="0 0 700.000000 700.000000"
 preserveAspectRatio="xMidYMid meet">
<metadata>
Created by potrace 1.11, written by Peter Selinger 2001-2013
</metadata>
<g transform="translate(0.000000,700.000000) scale(0.100000,-0.100000)"
fill="#000000" stroke="none">
<path d="M3269 6886 c-2 -2 -42 -7 -89 -11 -47 -4 -94 -9 -105 -11 -11 -2 -42
-6 -70 -9 -145 -17 -433 -87 -614 -150 -398 -139 -754 -342 -1086 -619 -75
-63 -314 -301 -382 -381 -132 -156 -209 -263 -327 -457 -172 -282 -340 -691
-392 -951 -2 -10 -5 -26 -8 -35 -3 -9 -7 -28 -10 -42 -3 -14 -7 -35 -10 -46
-2 -12 -7 -37 -10 -55 -3 -19 -8 -43 -10 -55 -2 -12 -7 -45 -11 -74 -4 -29 -9
-62 -11 -74 -25 -126 -25 -694 1 -836 1 -8 6 -40 10 -70 10 -81 42 -244 66
-335 131 -512 362 -960 709 -1376 46 -55 272 -285 345 -350 222 -199 595 -434
885 -559 41 -18 89 -38 105 -45 42 -19 233 -84 275 -95 19 -4 78 -20 130 -34
96 -25 265 -59 353 -71 27 -4 57 -8 66 -10 102 -20 610 -28 736 -12 33 4 80
10 105 13 558 65 1123 291 1590 634 41 30 80 60 86 65 7 6 58 49 115 97 110
92 280 263 364 363 27 33 52 62 55 65 20 18 123 158 189 257 115 172 230 383
295 543 15 36 33 79 41 95 7 17 34 91 59 165 63 189 112 393 141 595 4 22 8
50 10 63 13 77 20 235 20 432 0 241 -8 348 -36 520 -6 36 -13 79 -16 95 -11
68 -66 288 -99 395 -240 770 -770 1448 -1468 1875 -93 57 -395 215 -411 215
-3 0 -24 9 -48 19 -185 84 -528 182 -762 218 -16 2 -41 6 -55 9 -14 2 -52 6
-85 10 -33 3 -71 8 -85 11 -28 6 -546 14 -551 9z m437 -661 c50 -3 102 -8 115
-10 13 -2 47 -6 74 -10 82 -10 244 -44 340 -71 575 -163 1048 -482 1434 -967
110 -139 265 -404 341 -582 94 -221 172 -495 195 -690 4 -27 8 -61 11 -75 7
-41 18 -239 18 -325 0 -289 -50 -592 -143 -868 -39 -117 -115 -297 -155 -370
-13 -23 -38 -69 -56 -102 -51 -94 -180 -286 -245 -364 -289 -351 -626 -611
-1022 -789 -84 -38 -383 -145 -383 -138 0 2 -21 -2 -47 -10 -109 -34 -311 -68
-468 -80 -158 -12 -414 -7 -540 11 -223 32 -294 47 -475 102 -158 48 -272 94
-422 169 -283 141 -489 292 -723 528 -247 249 -431 519 -564 831 -23 55 -46
109 -51 120 -31 70 -109 349 -125 445 -3 19 -8 42 -10 50 -2 8 -7 42 -11 74
-3 33 -8 67 -9 75 -22 128 -23 521 0 639 1 9 6 44 10 77 3 33 13 92 22 130 8
39 17 83 20 100 10 61 83 289 129 402 73 183 164 352 296 547 100 148 325 390
488 526 408 339 860 536 1410 614 19 3 89 8 155 12 66 4 121 7 122 8 4 3 180
-2 269 -9z"/>
<path d="M3227 5566 c-46 -17 -74 -40 -95 -81 -13 -27 -15 -160 -15 -1180 0
-919 2 -1158 13 -1190 14 -43 46 -77 125 -130 42 -29 283 -204 365 -265 194
-145 731 -530 757 -543 15 -7 39 -13 53 -12 14 1 37 2 52 3 43 3 80 43 218
233 151 210 160 224 160 279 0 58 -25 105 -74 140 -22 16 -45 33 -51 38 -10 8
-190 139 -245 177 -24 17 -105 76 -266 195 -19 14 -53 39 -77 55 -23 17 -92
67 -153 111 l-111 82 1 963 c1 530 -3 982 -7 1003 -11 54 -43 95 -91 117 -36
16 -68 19 -281 18 -177 0 -250 -3 -278 -13z"/>
</g>
</svg>
